<svg width="25" height="25" viewBox="0 0 25 25" fill="none" xmlns="http://www.w3.org/2000/svg">
<path fill-rule="evenodd" clip-rule="evenodd" d="M8.63372 2.54055C8.63372 1.59377 7.8662 0.826263 6.91943 0.826263C5.97267 0.826263 5.20515 1.59377 5.20515 2.54055V4.25483H3.49086C2.0707 4.25483 0.919434 5.4061 0.919434 6.82626V9.39769H24.9194V6.82626C24.9194 5.4061 23.7681 4.25483 22.348 4.25483H20.6339V2.54055C20.6339 1.59377 19.8664 0.826263 18.9196 0.826263C17.9728 0.826263 17.2053 1.59377 17.2053 2.54055V4.25483H8.63372V2.54055ZM24.9194 11.5405H0.919434V22.2548C0.919434 23.6749 2.0707 24.8263 3.49086 24.8263H22.348C23.7681 24.8263 24.9194 23.6749 24.9194 22.2548V11.5405Z" fill="black" fill-opacity="0.75"/>
</svg>
