<svg width="25" height="24" viewBox="0 0 25 24" fill="none" xmlns="http://www.w3.org/2000/svg">
<path d="M20.3889 10.999H22.3889C22.3889 5.869 18.5159 2 13.3789 2V4C17.4409 4 20.3889 6.943 20.3889 10.999Z" fill="black" fill-opacity="0.75"/>
<path d="M13.3885 7.99999C15.4915 7.99999 16.3885 8.89699 16.3885 11H18.3885C18.3885 7.77499 16.6135 5.99999 13.3885 5.99999V7.99999ZM16.8105 13.443C16.6183 13.2683 16.3658 13.1752 16.1063 13.1832C15.8467 13.1912 15.6005 13.2998 15.4195 13.486L13.0265 15.947C12.4505 15.837 11.2925 15.476 10.1005 14.287C8.90847 13.094 8.54747 11.933 8.44047 11.361L10.8995 8.96699C11.0859 8.78612 11.1946 8.53982 11.2026 8.2802C11.2107 8.02059 11.1174 7.76804 10.9425 7.57599L7.24747 3.51299C7.07251 3.32035 6.82934 3.2035 6.56962 3.18725C6.30989 3.17101 6.05406 3.25665 5.85647 3.42599L3.68647 5.28699C3.51358 5.46051 3.41039 5.69145 3.39647 5.93599C3.38147 6.18599 3.09547 12.108 7.68747 16.702C11.6935 20.707 16.7115 21 18.0935 21C18.2955 21 18.4195 20.994 18.4525 20.992C18.697 20.9783 18.9278 20.8747 19.1005 20.701L20.9605 18.53C21.1299 18.3325 21.2157 18.0768 21.1997 17.817C21.1836 17.5573 21.067 17.3141 20.8745 17.139L16.8105 13.443Z" fill="black" fill-opacity="0.75"/>
</svg>
